/* XPM */
static char * alt_window_32_xpm[] = {
"32 32 76 1",
" 	c None",
".	c #65D6FB",
"+	c #70D4FA",
"@	c #71D5FB",
"#	c #67D8FC",
"$	c #72D6FC",
"%	c #68D9FD",
"&	c #74D7FD",
"*	c #75D8FF",
"=	c #76D9FF",
"-	c #77DBFF",
";	c #7EDAFB",
">	c #80DBFC",
",	c #81DCFD",
"'	c #82DEFE",
")	c #83DFFF",
"!	c #84E0FF",
"~	c #8BE0FA",
"{	c #8CE1FC",
"]	c #95DFFC",
"^	c #8DE2FD",
"/	c #96E0FD",
"(	c #97E1FE",
"_	c #98E2FF",
":	c #99E4FF",
"<	c #9FE3FA",
"[	c #9AE5FF",
"}	c #A0E4FB",
"|	c #A1E6FC",
"1	c #A2E7FE",
"2	c #AAE5FE",
"3	c #A3E8FF",
"4	c #ABE6FF",
"5	c #A4E9FF",
"6	c #ACE7FF",
"7	c #B1E7FA",
"8	c #ADE8FF",
"9	c #B2E8FB",
"0	c #B3E9FC",
"a	c #B4EAFD",
"b	c #B5ECFE",
"c	c #B6EDFF",
"d	c #B7EEFF",
"e	c #BFECFF",
"f	c #C3ECFB",
"g	c #C4EDFC",
"h	c #C5EEFD",
"i	c #C6EFFE",
"j	c #C7F0FF",
"k	c #C8F1FF",
"l	c #CDF2FB",
"m	c #C9F3FF",
"n	c #D0F1FF",
"o	c #D5F2FD",
"p	c #D6F3FE",
"q	c #D7F4FF",
"r	c #D9F5FF",
"s	c #DAF6FF",
"t	c #DBF7FF",
"u	c #DEF7FC",
"v	c #E5F5FC",
"w	c #E1F6FF",
"x	c #DFF8FD",
"y	c #E6F7FD",
"z	c #E7F8FE",
"A	c #E8F9FF",
"B	c #E9FAFF",
"C	c #EAFBFF",
"D	c #F5FAFD",
"E	c #EFFCFD",
"F	c #F6FBFE",
"G	c #F0FDFE",
"H	c #F7FDFF",
"I	c #F8FEFF",
"J	c #F9FFFF",
"K	c #FEFFFC",
"KKKKKKKKKKKKKKIHFGGGGGFIKKKKKKKK",
"KKKKKKKKIHHIIEupkighhgirGIKKKKKK",
"KKKKKKIGrkirrg_~'>;>;;'_kAIKKKKK",
"KKKKKHyh|)'_6~*@@#####@*(iEKKKKK",
"KKKKIrb~*$$>]'##########*|rIKKKK",
"KKKKEc)*##$)_>@######@##$'cAIKKK",
"KKKIz|*@#@>5b'@####@****$'bAIKKK",
"KKKIu_*##%_ok)@##@$'_05/)_kAIKKK",
"KKKHp~$#@*2yo)$##*_iuAukb69izIKK",
"KKKAh'@##*|rr/%$>_kyzrk0()'(iFKK",
"KKIr6*@###]or9~]0pAue_);*##*_xIK",
"KKHk($####'hzrikzHHl_*@@####)kFK",
"KKHi~#####;bzHGFIKIr|*@####@;cAK",
"KKFg)#####*|rIKKKKIEk/*@####*_rI",
"KKHk/*@@#+$/lIKKKKKIGk_*@###@'hE",
"KKIp5';*$@$~kIKKKKKKIzg~*###@;8z",
"KKEk|_66~''|rIKKKKKIHDzk_>$##$(o",
"KIu|')6ki00kAKKKKKKHzprrk|*@#$~k",
"KHk)$*~izyzDIKKKKKKzc/|kzk~$#$~k",
"KHk)#@*(bgkryzADIKHk/$*|rk]$@>6r",
"KHl)#@@*')~|57bkAIA8>#$'cc)@$/kD",
"KIr_*@#@##$***>/lAp~*#@*~_'*'cAI",
"KKA0'@#######+#)iyc;###@*~__0vIK",
"KKHk_*@######@*(pr|*####$)bkwHKK",
"KKKEo|'$####@*~fyk~$####$~kFIKKK",
"KKKIFrb~*###@'6ll5*@###@;|rIKKKK",
"KKKKKFrc(;$@*~60|'$##+@*<iEKKKKK",
"KKKKKKIApb/'~~';*@@#+$>|pEIKKKKK",
"KKKKKKKKHzncb(*@####@'|oFKKKKKKK",
"KKKKKKKKKIHDxb)*$@@*'0rFKKKKKKKK",
"KKKKKKKKKKKKIyi6_~)_byHKKKKKKKKK",
"KKKKKKKKKKKKKIFArplrAIKKKKKKKKKK"};
